<svg
    id="Layer_1"
    data-name="Layer 1"
    xmlns="http://www.w3.org/2000/svg"
    viewBox="0 0 131.15 145.29"
  >
    <title>T_logo</title>
    <g>
      <path
        d="M9.28,65.21A10,10,0,0,1,5.53,45.93L117.4.73a10,10,0,1,1,7.49,18.54L13,64.47A9.93,9.93,0,0,1,9.28,65.21Z"
        fill="#4b8fcd"
      />
      <path
        d="M9.28,97A10,10,0,0,1,5.53,77.71L117.4,32.51a10,10,0,1,1,7.49,18.55L13,96.26A10.11,10.11,0,0,1,9.28,97Z"
        fill="#4b8fcd"
      />
      <path
        d="M40.21,115.46a10,10,0,0,1-3.75-19.28l50-20.2A10,10,0,0,1,94,94.52l-50,20.2A9.94,9.94,0,0,1,40.21,115.46Z"
        fill="#4b8fcd"
      />
      <path
        d="M40.21,145.29A10,10,0,0,1,36.46,126l50-20.2A10,10,0,0,1,94,124.36l-50,20.2A9.93,9.93,0,0,1,40.21,145.29Z"
        fill="#4b8fcd"
      />
    </g>
  </svg>